<svg width="20" height="15" viewBox="0 0 20 15" fill="none" xmlns="http://www.w3.org/2000/svg">
<path d="M6.05762 7.64989L2.43488 4.66674C1.00867 5.947 0.468217 7.22958 0.458834 7.25585L0.359375 7.5L0.457896 7.74415C0.478538 7.79592 2.63098 12.9085 9.79296 12.9085C10.6646 12.9085 11.4584 12.8297 12.1875 12.6975L9.61093 10.5759C8.68323 10.5384 7.80561 10.2181 7.14884 9.67731C6.49206 9.13649 6.1031 8.41381 6.05762 7.64989ZM9.79296 2.09153C8.05243 2.09153 6.62623 2.40368 5.43741 2.86262L1.96104 0L0.634294 1.09251L17.5235 15L18.8503 13.9075L15.7558 11.3593C18.231 9.85037 19.114 7.7766 19.1271 7.74415L19.2256 7.5L19.1271 7.25585C19.1064 7.20408 16.9549 2.09153 9.79296 2.09153ZM11.5813 7.92186C11.7568 7.39878 11.6076 6.81003 11.1197 6.40749C10.6318 6.00494 9.91588 5.88287 9.28065 6.02735L7.86571 4.86221C8.44554 4.5686 9.11227 4.41196 9.79296 4.40945C11.8628 4.40945 13.5461 5.79556 13.5461 7.5C13.5433 8.06041 13.3528 8.60931 12.9953 9.08623L11.5813 7.92186Z" fill="#4F657C"/>
</svg>
