<svg width="162" height="36" viewBox="0 0 162 36" fill="none" xmlns="http://www.w3.org/2000/svg">
<path fill-rule="evenodd" clip-rule="evenodd" d="M24.5306 22.5214C24.7641 18.6046 31.3368 16.6282 26.6742 9.06302C28.8456 15.2688 21.9257 16.9832 22.0305 20.244C21.1906 16.0517 31.7265 13.3916 21.9589 3.88437C28.4969 13.3559 14.3365 15.1165 15.0003 20.9384C15.3214 23.7567 18.9587 24.312 20.8907 26.0751C23.9065 28.8255 23.3361 32.8154 17.0127 33.9244C20.6841 33.0793 23.3461 29.9387 21.0638 27.9074C21.0501 29.7104 19.3214 31.4187 15.9709 31.4187C8.97189 31.4187 7.3924 22.4389 15.5931 25.2085C14.9022 24.2406 13.3553 22.8756 10.395 23.392C11.733 22.8383 12.1086 22.8369 12.8663 23.2579C11.1726 21.5789 7.01571 21.3039 4.33005 23.2417C5.87618 22.6984 7.45569 22.5866 9.03463 23.0337C7.2252 24.0068 6.27792 25.7637 6.05847 27.6592C3.52711 26.1429 2.17216 22.357 3.38978 19.6352C1.48876 21.441 1.13199 23.8583 1.92741 26.5409C-3.05723 14.9043 15.5996 16.2134 20.3444 9.0465C21.4524 7.37321 21.1925 4.21368 19.0284 1.79957C23.1837 8.21621 8.54218 9.41985 5.73535 11.4509C8.68869 8.46495 24.1092 6.70107 16.7588 0C18.9969 4.16745 11.0515 5.73207 7.24862 8.04128C2.90403 10.6792 0 15.4683 0 20.9384C0 29.2565 6.71602 36 15.0003 36C23.2847 36 30.0273 29.2563 29.9999 20.9384C29.9916 18.3739 29.6119 16.1082 28.9994 14.0878C29.5152 18.2174 25.4003 19.5822 24.5306 22.5214Z" fill="white"/>
<path d="M45.54 26H47.157V19.983H51.656C51.8027 19.983 51.975 19.9757 52.173 19.961C52.371 19.9463 52.569 19.9243 52.767 19.895C53.999 19.7043 54.9487 19.1617 55.616 18.267C56.2907 17.3723 56.628 16.309 56.628 15.077C56.628 13.8377 56.2943 12.7707 55.627 11.876C54.9597 10.9813 54.0063 10.4387 52.767 10.248C52.569 10.2113 52.371 10.1893 52.173 10.182C51.9823 10.1673 51.81 10.16 51.656 10.16H45.54V26ZM47.157 18.443V11.711H51.612C51.744 11.711 51.898 11.7183 52.074 11.733C52.2573 11.7403 52.4297 11.7623 52.591 11.799C53.405 11.975 54.0027 12.382 54.384 13.02C54.7727 13.6507 54.967 14.3363 54.967 15.077C54.967 15.8103 54.7727 16.496 54.384 17.134C54.0027 17.772 53.405 18.1753 52.591 18.344C52.4297 18.3807 52.2573 18.4063 52.074 18.421C51.898 18.4357 51.744 18.443 51.612 18.443H47.157ZM58.8063 26H60.4343V19.664C60.4343 18.322 60.735 17.2697 61.3363 16.507C61.9377 15.7443 62.8103 15.363 63.9543 15.363C64.783 15.363 65.4503 15.5647 65.9563 15.968C66.4623 16.364 66.829 16.9067 67.0563 17.596C67.2837 18.2853 67.3973 19.0663 67.3973 19.939V26H69.0253V19.466C69.0253 18.7987 68.941 18.1313 68.7723 17.464C68.611 16.7967 68.347 16.188 67.9803 15.638C67.6137 15.088 67.126 14.648 66.5173 14.318C65.9087 13.988 65.157 13.823 64.2623 13.823C63.4117 13.823 62.6417 13.988 61.9523 14.318C61.2703 14.6407 60.7093 15.1247 60.2693 15.77V10.16H58.8063V26ZM76.8408 26.33C78.0142 26.33 79.0188 26.066 79.8548 25.538C80.6982 25.01 81.3435 24.2767 81.7908 23.338C82.2455 22.392 82.4728 21.2957 82.4728 20.049C82.4728 18.8243 82.2492 17.7427 81.8018 16.804C81.3618 15.858 80.7202 15.121 79.8768 14.593C79.0408 14.0577 78.0288 13.79 76.8408 13.79C75.6822 13.79 74.6812 14.054 73.8378 14.582C73.0018 15.1027 72.3565 15.8323 71.9018 16.771C71.4472 17.7097 71.2198 18.8023 71.2198 20.049C71.2198 21.2737 71.4398 22.359 71.8798 23.305C72.3272 24.251 72.9688 24.9917 73.8048 25.527C74.6482 26.0623 75.6602 26.33 76.8408 26.33ZM76.8408 24.779C75.5575 24.779 74.5858 24.35 73.9258 23.492C73.2658 22.6267 72.9358 21.479 72.9358 20.049C72.9358 18.663 73.2548 17.5337 73.8928 16.661C74.5308 15.781 75.5135 15.341 76.8408 15.341C78.1535 15.341 79.1325 15.77 79.7778 16.628C80.4305 17.4787 80.7568 18.619 80.7568 20.049C80.7568 21.4497 80.4342 22.59 79.7888 23.47C79.1435 24.3427 78.1608 24.779 76.8408 24.779ZM89.9264 26.33C91.0777 26.33 92.108 26.0477 93.0174 25.483C93.934 24.9183 94.627 24.1153 95.0964 23.074L93.5894 22.491C92.834 24.0163 91.591 24.779 89.8604 24.779C88.6724 24.779 87.741 24.4087 87.0664 23.668C86.399 22.9273 86.0324 21.875 85.9664 20.511H95.3274C95.386 18.4137 94.9277 16.771 93.9524 15.583C92.9844 14.3877 91.6204 13.79 89.8604 13.79C88.7164 13.79 87.7227 14.0467 86.8794 14.56C86.0434 15.0733 85.3944 15.803 84.9324 16.749C84.4704 17.695 84.2394 18.817 84.2394 20.115C84.2394 21.369 84.4704 22.4617 84.9324 23.393C85.4017 24.3243 86.0617 25.0467 86.9124 25.56C87.7704 26.0733 88.775 26.33 89.9264 26.33ZM89.9044 15.275C92.141 15.275 93.384 16.5693 93.6334 19.158H85.9994C86.124 17.904 86.52 16.9433 87.1874 16.276C87.8547 15.6087 88.7604 15.275 89.9044 15.275ZM97.4353 26H99.0633V19.664C99.0633 18.322 99.3639 17.2697 99.9653 16.507C100.567 15.7443 101.439 15.363 102.583 15.363C103.412 15.363 104.079 15.5647 104.585 15.968C105.091 16.364 105.458 16.9067 105.685 17.596C105.913 18.2853 106.026 19.0663 106.026 19.939V26H107.654V19.466C107.654 18.7987 107.57 18.1313 107.401 17.464C107.24 16.7967 106.976 16.188 106.609 15.638C106.243 15.088 105.755 14.648 105.146 14.318C104.538 13.988 103.786 13.823 102.891 13.823C102.041 13.823 101.271 13.988 100.581 14.318C99.8993 14.6407 99.3383 15.1247 98.8983 15.77V14.12H97.4353V26ZM110.729 11.865H112.346V10.05H110.729V11.865ZM110.729 26H112.346V14.12H110.729V26ZM114.324 26H116.271L119.912 21.237L123.531 26H125.478L120.825 19.994L125.368 14.12H123.432L119.912 18.751L116.359 14.12H114.423L118.966 19.994L114.324 26ZM127.245 26H133.867C135.268 26 136.397 25.604 137.255 24.812C138.113 24.0127 138.542 22.9273 138.542 21.556C138.542 20.6393 138.307 19.84 137.838 19.158C137.376 18.476 136.734 17.9553 135.913 17.596C136.485 17.266 136.936 16.8077 137.266 16.221C137.603 15.627 137.772 14.967 137.772 14.241C137.772 13.493 137.589 12.811 137.222 12.195C136.855 11.5717 136.342 11.0767 135.682 10.71C135.022 10.3433 134.248 10.16 133.361 10.16H127.245V26ZM128.873 16.914V11.689H133.35C134.149 11.689 134.806 11.9237 135.319 12.393C135.84 12.8623 136.1 13.471 136.1 14.219C136.1 15.011 135.832 15.66 135.297 16.166C134.762 16.6647 134.113 16.914 133.35 16.914H128.873ZM128.873 24.449V18.443H133.768C134.362 18.443 134.894 18.5823 135.363 18.861C135.832 19.1397 136.199 19.5173 136.463 19.994C136.734 20.4633 136.87 20.9913 136.87 21.578C136.87 22.48 136.544 23.184 135.891 23.69C135.238 24.196 134.432 24.449 133.471 24.449H128.873ZM145.698 26.33C146.872 26.33 147.876 26.066 148.712 25.538C149.556 25.01 150.201 24.2767 150.648 23.338C151.103 22.392 151.33 21.2957 151.33 20.049C151.33 18.8243 151.107 17.7427 150.659 16.804C150.219 15.858 149.578 15.121 148.734 14.593C147.898 14.0577 146.886 13.79 145.698 13.79C144.54 13.79 143.539 14.054 142.695 14.582C141.859 15.1027 141.214 15.8323 140.759 16.771C140.305 17.7097 140.077 18.8023 140.077 20.049C140.077 21.2737 140.297 22.359 140.737 23.305C141.185 24.251 141.826 24.9917 142.662 25.527C143.506 26.0623 144.518 26.33 145.698 26.33ZM145.698 24.779C144.415 24.779 143.443 24.35 142.783 23.492C142.123 22.6267 141.793 21.479 141.793 20.049C141.793 18.663 142.112 17.5337 142.75 16.661C143.388 15.781 144.371 15.341 145.698 15.341C147.011 15.341 147.99 15.77 148.635 16.628C149.288 17.4787 149.614 18.619 149.614 20.049C149.614 21.4497 149.292 22.59 148.646 23.47C148.001 24.3427 147.018 24.779 145.698 24.779ZM160.225 26V24.581C159.374 24.7203 158.659 24.7423 158.08 24.647C157.508 24.5517 157.09 24.2583 156.826 23.767C156.686 23.5103 156.609 23.217 156.595 22.887C156.587 22.5497 156.584 22.1317 156.584 21.633V15.506H160.225V14.12H156.584V10.82H154.978V14.12H152.437V15.506H154.978V21.699C154.978 22.2783 154.985 22.7953 155 23.25C155.022 23.7047 155.139 24.1483 155.352 24.581C155.616 25.109 156.001 25.4977 156.507 25.747C157.02 25.9963 157.599 26.1357 158.245 26.165C158.897 26.1943 159.557 26.1393 160.225 26Z" fill="white"/>
</svg>
