<svg width="15" height="13" viewBox="0 0 15 13" fill="none" xmlns="http://www.w3.org/2000/svg">
<path d="M13.9875 0.085478L0.700408 5.38029C-0.206384 5.75666 -0.201138 6.27941 0.534038 6.51251L3.94537 7.61221L11.8382 2.46609C12.2114 2.23144 12.5524 2.35767 12.2721 2.61478L5.87736 8.5787H5.87586L5.87736 8.57948L5.64205 12.2131C5.98678 12.2131 6.13891 12.0497 6.33226 11.8569L7.98921 10.1919L11.4358 12.8226C12.0713 13.1843 12.5277 12.9984 12.6858 12.2147L14.9483 1.19602C15.1798 0.236493 14.5938 -0.197965 13.9875 0.085478Z" fill="#5C7484"/>
<path d="M13.9875 0.085478L0.700408 5.38029C-0.206384 5.75666 -0.201138 6.27941 0.534038 6.51251L3.94537 7.61221L11.8382 2.46609C12.2114 2.23144 12.5524 2.35767 12.2721 2.61478L5.87736 8.5787H5.87586L5.87736 8.57948L5.64205 12.2131C5.98678 12.2131 6.13891 12.0497 6.33226 11.8569L7.98921 10.1919L11.4358 12.8226C12.0713 13.1843 12.5277 12.9984 12.6858 12.2147L14.9483 1.19602C15.1798 0.236493 14.5938 -0.197965 13.9875 0.085478Z" fill="#5C7484"/>
</svg>
